<?xml version="1.0" standalone="no"?>
<!DOCTYPE svg PUBLIC "-//W3C//DTD SVG 20010904//EN"
 "http://www.w3.org/TR/2001/REC-SVG-20010904/DTD/svg10.dtd">
<svg version="1.0" xmlns="http://www.w3.org/2000/svg"
 width="149.000000pt" height="171.000000pt" viewBox="0 0 149.000000 171.000000"
 preserveAspectRatio="xMidYMid meet">

<g transform="translate(0.000000,171.000000) scale(0.100000,-0.100000)"
fill="#000000" stroke="none">
<path d="M381 1553 c-25 -21 -45 -112 -32 -146 5 -12 21 -32 35 -44 26 -23 31
-52 18 -101 -11 -38 -27 -20 -24 26 4 39 2 42 -22 42 -21 0 -26 -6 -31 -33
-11 -58 -3 -91 28 -105 22 -11 32 -11 54 0 34 16 49 46 57 116 7 52 6 54 -30
87 -35 32 -36 36 -30 79 4 25 12 46 18 46 7 0 9 -15 5 -40 -5 -39 -4 -40 24
-40 18 0 29 5 29 14 0 7 3 27 6 44 12 58 -58 94 -105 55z"/>
<path d="M604 1563 c-20 -4 -23 -18 -43 -171 -12 -92 -25 -175 -27 -184 -5
-16 2 -18 46 -18 73 0 93 23 109 126 18 115 25 230 15 237 -15 9 -77 15 -100
10z m37 -191 c-17 -119 -24 -142 -38 -129 -6 7 25 255 35 271 2 5 8 2 13 -6 4
-8 0 -69 -10 -136z"/>
<path d="M815 1545 c-14 -13 -25 -32 -25 -42 0 -10 -3 -34 -6 -54 -5 -32 -2
-41 30 -76 34 -38 36 -44 30 -87 -5 -30 -12 -46 -21 -46 -11 0 -13 10 -7 46
l7 46 -29 -4 c-28 -3 -29 -5 -32 -60 -3 -51 -1 -59 22 -73 59 -39 116 23 116
126 0 50 -3 57 -30 77 -30 23 -37 50 -24 100 11 40 27 24 20 -21 -6 -42 -6
-43 21 -42 27 2 28 4 31 56 3 42 -1 56 -14 66 -27 20 -62 15 -89 -12z"/>
<path d="M1001 1388 c-19 -95 -36 -179 -39 -185 -3 -9 6 -13 26 -13 27 0 30 4
36 38 11 61 16 72 34 72 14 0 16 -9 14 -55 -4 -53 -3 -55 22 -55 14 0 26 1 26
3 0 1 7 79 15 172 8 94 15 176 15 183 0 8 -18 12 -58 12 l-58 0 -33 -172z m84
15 c-4 -36 -11 -53 -21 -53 -8 0 -14 4 -14 10 0 11 19 106 28 140 6 23 6 22
10 -10 2 -19 1 -59 -3 -87z"/>
<path d="M470 1229 c0 -4 -3 -14 -6 -23 -5 -12 0 -16 20 -16 20 0 26 5 26 23
0 16 -6 23 -20 23 -11 0 -20 -3 -20 -7z"/>
<path d="M905 1231 c-3 -2 -5 -13 -5 -23 0 -14 6 -19 23 -16 30 4 37 44 7 44
-12 0 -23 -2 -25 -5z"/>
<path d="M690 1210 c0 -13 7 -20 20 -20 13 0 20 7 20 20 0 13 -7 20 -20 20
-13 0 -20 -7 -20 -20z"/>
<path d="M1140 1210 c0 -13 7 -20 19 -20 10 0 21 9 24 20 4 16 0 20 -19 20
-17 0 -24 -6 -24 -20z"/>
<path d="M374 1012 c-19 -13 -34 -50 -28 -69 4 -10 21 -33 37 -50 l31 -33 -28
-29 c-18 -18 -34 -27 -46 -24 -23 6 -71 -27 -101 -68 l-22 -31 26 -26 26 -26
26 24 c33 31 46 18 15 -15 l-24 -26 27 -26 26 -27 26 24 c33 31 46 18 15 -15
l-24 -26 27 -27 28 -27 50 53 c39 40 50 58 46 75 -4 14 3 32 19 52 l24 30 57
-57 58 -58 -99 -99 -99 -99 -56 5 c-69 6 -126 -18 -163 -69 -33 -47 -33 -159
0 -206 47 -65 145 -90 218 -56 72 34 115 121 96 195 l-9 37 101 101 101 101
97 -97 96 -98 -5 -60 c-6 -80 24 -139 87 -172 94 -50 191 -18 241 79 36 71 19
149 -44 205 -41 36 -88 48 -151 40 l-42 -6 -99 99 -98 99 56 58 56 58 29 -28
c21 -20 28 -35 24 -52 -3 -18 7 -37 39 -74 23 -28 47 -51 54 -51 6 0 22 11 35
25 l24 25 -27 28 c-36 37 -22 50 15 15 l28 -27 27 27 27 27 -27 28 c-36 37
-22 51 15 15 l28 -27 27 27 27 27 -49 51 c-41 41 -55 50 -77 46 -20 -2 -35 4
-55 25 l-27 28 37 38 c43 44 49 83 15 106 -12 9 -32 16 -43 16 -12 0 -80 -60
-183 -162 l-163 -163 -157 163 c-157 162 -181 179 -218 154z m58 -729 c39 -35
7 -98 -48 -91 -18 2 -34 13 -43 29 -13 24 -13 29 2 53 20 30 61 35 89 9z m722
1 c20 -20 20 -58 0 -78 -18 -19 -65 -21 -82 -4 -16 16 -16 70 0 86 17 17 64
15 82 -4z"/>
</g>
</svg>
